<svg data-v-423bf9ae="" xmlns="http://www.w3.org/2000/svg" viewBox="0 0 488 112" class="iconLeft"><!----><!----><!----><g data-v-423bf9ae="" id="b8b35c80-51f5-4665-981f-664cd87171b3" fill="white" transform="matrix(5.3523639425355505,0,0,5.3523639425355505,126.61526814646544,18.811577065495833)"><path d="M6.31 1.26Q8.27 1.26 9.77 2.51L9.77 2.51Q9.90 2.60 9.90 2.79L9.90 2.79Q9.90 2.95 9.79 3.09Q9.67 3.22 9.48 3.22L9.48 3.22Q9.32 3.22 9.13 3.05L9.13 3.05Q8.06 2.10 6.31 2.10L6.31 2.10Q5.08 2.10 4.01 2.76Q2.94 3.42 2.31 4.51Q1.68 5.61 1.68 6.86L1.68 6.86Q1.68 8.15 2.30 9.25Q2.93 10.35 4.00 10.99Q5.07 11.63 6.31 11.63L6.31 11.63Q7.97 11.63 9.21 10.61L9.21 10.61Q9.31 10.54 9.42 10.54L9.42 10.54Q9.59 10.54 9.72 10.67Q9.86 10.79 9.86 10.98L9.86 10.98Q9.86 11.16 9.76 11.27L9.76 11.27Q8.55 12.47 6.31 12.47L6.31 12.47Q4.84 12.47 3.58 11.71Q2.32 10.95 1.58 9.65Q0.84 8.36 0.84 6.86L0.84 6.86Q0.84 5.36 1.57 4.07Q2.31 2.79 3.56 2.02Q4.82 1.26 6.31 1.26L6.31 1.26ZM11.72 1.82Q11.72 1.62 11.84 1.51Q11.96 1.40 12.14 1.40L12.14 1.40Q12.33 1.40 12.45 1.51Q12.56 1.62 12.56 1.82L12.56 1.82L12.56 10.02Q12.56 10.67 12.83 11.08Q13.10 11.49 13.54 11.49L13.54 11.49L13.89 11.49Q14.04 11.49 14.14 11.61Q14.24 11.72 14.24 11.91L14.24 11.91Q14.24 12.10 14.13 12.21Q14.01 12.33 13.82 12.33L13.82 12.33L13.54 12.33Q12.74 12.33 12.23 11.69Q11.72 11.05 11.72 10.02L11.72 10.02L11.72 1.82ZM16.06 5.10Q16.06 4.90 16.18 4.79Q16.30 4.68 16.48 4.68L16.48 4.68Q16.67 4.68 16.79 4.79Q16.90 4.90 16.90 5.10L16.90 5.10L16.90 11.91Q16.90 12.10 16.79 12.21Q16.67 12.33 16.48 12.33L16.48 12.33Q16.30 12.33 16.18 12.21Q16.06 12.10 16.06 11.91L16.06 11.91L16.06 5.10ZM16.48 1.76Q16.74 1.76 16.93 1.93Q17.12 2.10 17.12 2.41L17.12 2.41Q17.12 2.69 16.93 2.88Q16.74 3.07 16.46 3.07L16.46 3.07Q16.18 3.07 16.00 2.88Q15.82 2.69 15.82 2.41L15.82 2.41Q15.82 2.10 16.02 1.93Q16.21 1.76 16.48 1.76L16.48 1.76ZM27.78 4.58Q28.62 4.58 29.27 5.00Q29.93 5.42 30.30 6.17Q30.66 6.92 30.66 7.87L30.66 7.87L30.66 11.91Q30.66 12.10 30.55 12.21Q30.44 12.33 30.24 12.33L30.24 12.33Q30.06 12.33 29.94 12.21Q29.82 12.10 29.82 11.91L29.82 11.91L29.82 7.87Q29.82 6.79 29.25 6.10Q28.67 5.42 27.78 5.42L27.78 5.42Q26.80 5.42 26.19 6.06Q25.59 6.71 25.62 7.77L25.62 7.77L25.62 7.87L25.62 11.91Q25.62 12.10 25.51 12.21Q25.40 12.33 25.20 12.33L25.20 12.33Q25.02 12.33 24.90 12.21Q24.78 12.10 24.78 11.91L24.78 11.91L24.78 7.87Q24.78 6.79 24.21 6.10Q23.63 5.42 22.74 5.42L22.74 5.42Q21.77 5.42 21.15 6.03Q20.54 6.65 20.54 7.63L20.54 7.63L20.54 11.91Q20.54 12.10 20.43 12.21Q20.31 12.33 20.12 12.33L20.12 12.33Q19.94 12.33 19.82 12.21Q19.70 12.10 19.70 11.91L19.70 11.91L19.70 5.10Q19.70 4.90 19.82 4.79Q19.94 4.68 20.12 4.68L20.12 4.68Q20.31 4.68 20.43 4.79Q20.54 4.90 20.54 5.10L20.54 5.10L20.54 5.64Q20.93 5.14 21.50 4.86Q22.08 4.58 22.74 4.58L22.74 4.58Q23.55 4.58 24.19 4.98Q24.84 5.38 25.21 6.08L25.21 6.08Q25.59 5.38 26.26 4.98Q26.94 4.58 27.78 4.58L27.78 4.58ZM36.54 4.59Q37.63 4.59 38.53 5.10Q39.42 5.61 39.94 6.51Q40.45 7.41 40.45 8.51L40.45 8.51L40.45 11.91Q40.45 12.10 40.33 12.21Q40.22 12.33 40.03 12.33L40.03 12.33Q39.84 12.33 39.73 12.21Q39.61 12.10 39.61 11.91L39.61 11.91L39.61 10.82Q39.14 11.56 38.34 11.99Q37.53 12.42 36.54 12.42L36.54 12.42Q35.43 12.42 34.54 11.91Q33.64 11.40 33.13 10.50Q32.62 9.60 32.62 8.51L32.62 8.51Q32.62 7.41 33.13 6.51Q33.64 5.61 34.54 5.10Q35.43 4.59 36.54 4.59L36.54 4.59ZM36.54 11.63Q37.41 11.63 38.11 11.23Q38.81 10.82 39.21 10.11Q39.61 9.39 39.61 8.51L39.61 8.51Q39.61 7.63 39.21 6.92Q38.81 6.20 38.11 5.79Q37.41 5.38 36.54 5.38L36.54 5.38Q35.67 5.38 34.97 5.79Q34.27 6.20 33.87 6.92Q33.46 7.63 33.46 8.51L33.46 8.51Q33.46 9.39 33.87 10.11Q34.27 10.82 34.97 11.23Q35.67 11.63 36.54 11.63L36.54 11.63ZM48.12 1.40Q48.29 1.40 48.39 1.50Q48.50 1.61 48.50 1.78L48.50 1.78Q48.50 1.95 48.39 2.05Q48.29 2.16 48.12 2.16L48.12 2.16L44.58 2.16L44.58 11.91Q44.58 12.10 44.46 12.21Q44.34 12.33 44.16 12.33L44.16 12.33Q43.97 12.33 43.86 12.21Q43.74 12.10 43.74 11.91L43.74 11.91L43.74 2.16L40.19 2.16Q40.03 2.16 39.92 2.05Q39.82 1.95 39.82 1.78L39.82 1.78Q39.82 1.61 39.92 1.50Q40.03 1.40 40.19 1.40L40.19 1.40L48.12 1.40ZM51.37 4.59Q52.46 4.59 53.35 5.10Q54.25 5.61 54.76 6.51Q55.27 7.41 55.27 8.51L55.27 8.51L55.27 11.91Q55.27 12.10 55.16 12.21Q55.05 12.33 54.85 12.33L54.85 12.33Q54.67 12.33 54.55 12.21Q54.43 12.10 54.43 11.91L54.43 11.91L54.43 10.82Q53.97 11.56 53.16 11.99Q52.36 12.42 51.37 12.42L51.37 12.42Q50.26 12.42 49.36 11.91Q48.47 11.40 47.96 10.50Q47.45 9.60 47.45 8.51L47.45 8.51Q47.45 7.41 47.96 6.51Q48.47 5.61 49.36 5.10Q50.26 4.59 51.37 4.59L51.37 4.59ZM51.37 11.63Q52.23 11.63 52.93 11.23Q53.63 10.82 54.03 10.11Q54.43 9.39 54.43 8.51L54.43 8.51Q54.43 7.63 54.03 6.92Q53.63 6.20 52.93 5.79Q52.23 5.38 51.37 5.38L51.37 5.38Q50.50 5.38 49.80 5.79Q49.10 6.20 48.69 6.92Q48.29 7.63 48.29 8.51L48.29 8.51Q48.29 9.39 48.69 10.11Q49.10 10.82 49.80 11.23Q50.50 11.63 51.37 11.63L51.37 11.63ZM57.09 1.82Q57.09 1.62 57.21 1.51Q57.33 1.40 57.51 1.40L57.51 1.40Q57.71 1.40 57.82 1.51Q57.93 1.62 57.93 1.82L57.93 1.82L57.93 10.02Q57.93 10.67 58.20 11.08Q58.48 11.49 58.91 11.49L58.91 11.49L59.26 11.49Q59.42 11.49 59.51 11.61Q59.61 11.72 59.61 11.91L59.61 11.91Q59.61 12.10 59.50 12.21Q59.39 12.33 59.19 12.33L59.19 12.33L58.91 12.33Q58.11 12.33 57.60 11.69Q57.09 11.05 57.09 10.02L57.09 10.02L57.09 1.82ZM63.91 4.61Q64.93 4.61 65.74 5.09Q66.54 5.57 66.99 6.43Q67.44 7.28 67.44 8.37L67.44 8.37Q67.44 8.55 67.33 8.66Q67.21 8.76 67.03 8.76L67.03 8.76L61.17 8.76Q61.21 9.59 61.60 10.24Q61.99 10.89 62.65 11.26Q63.31 11.62 64.12 11.62L64.12 11.62Q64.67 11.62 65.22 11.43Q65.77 11.24 66.09 10.93L66.09 10.93Q66.23 10.82 66.39 10.82L66.39 10.82Q66.54 10.82 66.64 10.91L66.64 10.91Q66.79 11.03 66.79 11.20L66.79 11.20Q66.79 11.34 66.67 11.47L66.67 11.47Q66.22 11.87 65.50 12.14Q64.78 12.40 64.12 12.40L64.12 12.40Q63.01 12.40 62.15 11.91Q61.29 11.41 60.80 10.52Q60.31 9.63 60.31 8.51L60.31 8.51Q60.31 7.38 60.77 6.49Q61.22 5.60 62.04 5.10Q62.86 4.61 63.91 4.61L63.91 4.61ZM63.91 5.39Q62.82 5.39 62.07 6.12Q61.32 6.85 61.18 8.04L61.18 8.04L66.63 8.04Q66.53 6.85 65.79 6.12Q65.04 5.39 63.91 5.39L63.91 5.39Z"></path></g><!----><g data-v-423bf9ae="" id="0dd45586-8604-4cf4-9f2c-dcbe22956a71" transform="matrix(1.1111111111111112,0,0,1.1111111111111112,0.4443845727097724,0.44444444444444287)" stroke="none" fill="white"><path opacity=".99" d="M50.04 0C36.381 0 23.931 5.461 14.844 14.42A49.857 49.857 0 000 50c0 14.02 5.758 26.621 14.844 35.58S36.381 100 50.04 100s26.029-5.461 35.116-14.42A49.855 49.855 0 00100 50a49.857 49.857 0 00-14.844-35.58C76.069 5.461 63.699 0 50.04 0zm0 6.035a45.738 45.738 0 0132.163 13.166C90.354 27.238 95.211 38.083 95.211 50s-4.857 22.762-13.008 30.799A45.736 45.736 0 0150.04 93.966c-12.645 0-24.091-5.129-32.243-13.167C9.646 72.762 4.789 61.917 4.789 50s4.857-22.762 13.009-30.799C25.949 11.164 37.395 6.035 50.04 6.035zM63.049 18.26l3.192 5.564-5.667 6.348-3.271 1.097-3.831-1.411-5.427 2.508-.718 3.057 1.437 2.821 2.553-4.859 1.038 3.135-2.555 2.508-6.065.627-1.437 1.489 1.437 1.724-3.192 1.332 2.155 3.057 2.474-1.411 2.155-2.273 3.752 1.881 1.276.549 1.356 2.272.719.862-7.343-.706s-5.848-.212-6.385.314l-3.033 5.33.718 5.25 6.065 1.803 3.592 2.43v7.053l1.037 4.938h3.592l3.592-2.115 2.474-6.035-.319-4.232 3.192-4.545 2.873-5.25 3.272-1.02 1.756 6.27 4.629-4.154.718 7.994 3.911 3.213 2.952-.705-3.671-4.231.719-3.841 2.154.393-1.756-3.918 3.192-2.117 1.756-6.348 1.517-5.643-1.836-3.84.719-1.333 2.474 7.68.718-10.501-5.746-4.937h-9.258l-9.656-8.074zm-25.698 2.743l-5.347 2.822 2.075 9.875 1.437.392 2.474-4.545 3.272-2.821-1.117-4.232-2.794-1.491zm-18.277 6.035l-3.911 3.84v2.116l-1.756 4.231-1.117 10.188 2.873 5.643 6.784 7.68-.399 6.035 1.516 3.84v9.091l4.23 2.116-.718-3.213 3.911-2.116 6.464-7.367-6.784-8.386-7.901-3.135-5.746-5.25 1.516-2.508 5.028-.313 1.357-5.956 6.784-4.232-6.385-6.348-2.554 1.411-3.192-7.367z"></path></g><!----></svg>